<svg xmlns="http://www.w3.org/2000/svg" viewBox="0 0 100 120" width="100" height="120">
  <!-- Badan karung -->
  <ellipse cx="50" cy="95" rx="38" ry="22" fill="#C4A265"/>
  <rect x="12" y="40" width="76" height="58" rx="8" fill="#C4A265"/>
  <!-- Tekstur karung -->
  <rect x="12" y="40" width="76" height="58" rx="8" fill="url(#burlap)" opacity="0.3"/>
  <!-- Leher karung -->
  <ellipse cx="50" cy="40" rx="28" ry="10" fill="#B8935A"/>
  <!-- Ikatan -->
  <ellipse cx="50" cy="32" rx="14" ry="8" fill="#8B6914"/>
  <path d="M36 32 Q50 20 64 32" stroke="#5C4A1E" stroke-width="3" fill="none"/>
  <!-- Rumbai atas -->
  <path d="M40 28 Q38 18 36 14" stroke="#5C4A1E" stroke-width="2" fill="none"/>
  <path d="M45 26 Q44 16 43 12" stroke="#5C4A1E" stroke-width="2" fill="none"/>
  <path d="M50 25 Q50 15 50 11" stroke="#5C4A1E" stroke-width="2" fill="none"/>
  <path d="M55 26 Q56 16 57 12" stroke="#5C4A1E" stroke-width="2" fill="none"/>
  <path d="M60 28 Q62 18 64 14" stroke="#5C4A1E" stroke-width="2" fill="none"/>
  <!-- Garis tekstur -->
  <line x1="20" y1="55" x2="80" y2="55" stroke="#A07840" stroke-width="0.8" opacity="0.5"/>
  <line x1="18" y1="65" x2="82" y2="65" stroke="#A07840" stroke-width="0.8" opacity="0.5"/>
  <line x1="16" y1="75" x2="84" y2="75" stroke="#A07840" stroke-width="0.8" opacity="0.5"/>
  <line x1="15" y1="85" x2="85" y2="85" stroke="#A07840" stroke-width="0.8" opacity="0.5"/>
  <!-- Outline -->
  <rect x="12" y="40" width="76" height="58" rx="8" fill="none" stroke="#5C4A1E" stroke-width="2"/>
  <ellipse cx="50" cy="95" rx="38" ry="22" fill="none" stroke="#5C4A1E" stroke-width="2"/>
</svg>